# xmcd
#
# Track frame offsets:
#	150
#	12835
#	26811
#	39061
#	52623
#	63852
#	76228
#	89448
#	102751
#	116621
#	128969
#	142446
#	156277
#	170674
#	183729
#	195313
#	207479
#	220127
#	232276
#	252754
#	265049
#	277326
#
# Disc length: 3884 seconds
#
# Revision: 3
# Processed by: cddbd v1.5.1PL2 Copyright (c) Steve Scherf et al.
# Submitted via: dBpowerAMP V4.0
#
DISCID=3f0f2a16
DTITLE=Louis Jordan - Let The Good Times Roll
DYEAR=1999
DGENRE=Blues
TTITLE0=Let The Good Times Roll!
TTITLE1=Five Guys Named Moe
TTITLE2=Choo Choo Ch'Boogie
TTITLE3=G.I. Jive
TTITLE4=That Chick's Too Young To Fry
TTITLE5=Buzz Me
TTITLE6=Ain't That Just Like A Woman?
TTITLE7=What's The Use Of Getting Sober((When Your'ge Gonna Get Drunk Again?)
TTITLE8=Ain't Nobody Here But Us Chickens
TTITLE9=Is You Or Is You Ain't (Ma' Baby?)
TTITLE10=Don't Let The Sun Catch You Crying
TTITLE11=Open The Door Richard!
TTITLE12=Daddy-O
TTITLE13=I'm Gonna Move To The Outskirts Of Town
TTITLE14=At The Swing Cat's Ball
TTITLE15=Caldonia (What Makes Your Big Head So Hard)
TTITLE16=Barnyard Boogie
TTITLE17=Reet, Petite And Gone
TTITLE18=Saturday Night Fish Fry
TTITLE19=Someone Done Hoodooed The Hoodoo Man
TTITLE20=Stone Cold Dead In The Market (He Had It Coming)
TTITLE21=That'll Just 'Bout Knock Me Out
EXTD=
EXTT0=
EXTT1=
EXTT2=
EXTT3=
EXTT4=
EXTT5=
EXTT6=
EXTT7=
EXTT8=
EXTT9=
EXTT10=
EXTT11=
EXTT12=
EXTT13=
EXTT14=
EXTT15=
EXTT16=
EXTT17=
EXTT18=
EXTT19=
EXTT20=
EXTT21=
PLAYORDER=
